<svg width="32" height="32" viewBox="0 0 32 32" fill="none" xmlns="http://www.w3.org/2000/svg">
<rect width="32" height="32" rx="5" fill="white"/>
<path d="M23.375 15.5C23.375 13.8546 22.8596 12.2505 21.9012 10.913C20.9427 9.57551 19.5894 8.57183 18.0313 8.04293C16.4732 7.51402 14.7886 7.48645 13.214 7.96409C11.6394 8.44174 10.254 9.4006 9.25234 10.706C8.25067 12.0114 7.68305 13.5978 7.62922 15.2423C7.57538 16.8869 8.03803 18.507 8.95218 19.8751C9.86633 21.2432 11.1861 22.2907 12.726 22.8703C14.266 23.4499 15.9488 23.5325 17.5382 23.1067" stroke="#667DDE" stroke-width="2" stroke-linecap="round"/>
<circle cx="15.5" cy="15.5" r="3.5" stroke="#667DDE" stroke-width="2"/>
<path d="M19 12.875V16.8125C19 18.0206 19.9794 19 21.1875 19V19C22.3956 19 23.375 18.0206 23.375 16.8125V15.5" stroke="#667DDE" stroke-width="2" stroke-linecap="round"/>
</svg>
